Coordinates
version=1
nRows=10
nColumns=63
inDegrees=yes

Units are S.I. units (second, meters, Newtons, ...)
If the header above contains a line with 'inDegrees', this indicates whether rotational values are in degrees (yes) or radians (no).

endheader
time	pelvis_tilt	pelvis_list	pelvis_rotation	pelvis_tx	pelvis_ty	pelvis_tz	hip_flexion_r	hip_adduction_r	hip_rotation_r	knee_angle_r	knee_angle_r_beta	ankle_angle_r	subtalar_angle_r	mtp_angle_r	hip_flexion_l	hip_adduction_l	hip_rotation_l	knee_angle_l	knee_angle_l_beta	ankle_angle_l	subtalar_angle_l	mtp_angle_l	L5_S1_Flex_Ext	L5_S1_Lat_Bending	L5_S1_axial_rotation	L4_L5_Flex_Ext	L4_L5_Lat_Bending	L4_L5_axial_rotation	L3_L4_Flex_Ext	L3_L4_Lat_Bending	L3_L4_axial_rotation	L2_L3_Flex_Ext	L2_L3_Lat_Bending	L2_L3_axial_rotation	L1_L2_Flex_Ext	L1_L2_Lat_Bending	L1_L2_axial_rotation	L1_T12_Flex_Ext	L1_T12_Lat_Bending	L1_T12_axial_rotation	Abs_r3	Abs_r2	Abs_r1	Abs_t1	Abs_t2	neck_flexion	neck_bending	neck_rotation	arm_flex_r	arm_add_r	arm_rot_r	elbow_flex_r	pro_sup_r	wrist_flex_r	wrist_dev_r	arm_flex_l	arm_add_l	arm_rot_l	elbow_flex_l	pro_sup_l	wrist_flex_l	wrist_dev_l
      7.27659574	     -4.62199976	     -1.84235127	     94.22377951	      0.08465719	      0.51138117	      0.76613443	      1.20857216	      0.72881205	     -2.69304927	     12.26324284	      0.21403396	     33.36025117	      2.35993007	      0.00000000	      1.24500390	      1.93008999	     -2.76184035	     12.67650450	      0.22124674	     33.17725340	     -7.78488269	      0.00000000	     -0.04883818	     -0.03081356	      0.23884110	     -0.09069738	     -0.04098203	      0.25376867	     -0.08023624	     -0.07492008	      0.25376867	     -0.05581715	     -0.07492008	      0.20898596	     -0.04535113	     -0.06283501	      0.19405839	     -0.02790613	     -0.04773020	      0.17913082	     -0.34884622	     -0.34856913	      1.32836253	      0.00000000	      0.00000000	      6.43875706	      4.09942245	     -2.41340968	    -33.72606258	    -50.03014687	     34.79719919	    105.18914795	     89.51126484	      8.84899509	    -10.66774654	    -18.50397415	    -55.60805308	     50.32117306	    102.91588951	     89.41447360	     12.41846559	     -4.78523816
      7.29787234	     -4.65737977	     -1.96556544	     94.22056715	      0.08509497	      0.51104884	      0.76706146	      1.57692444	      0.71550674	     -2.71236387	     12.59993885	      0.21991042	     33.46785863	      2.32237616	      0.00000000	      1.53789157	      1.92292907	     -2.97410615	     12.89664871	      0.22508898	     33.30700625	     -7.59179772	      0.00000000	     -0.02838357	     -0.03849942	      0.25719832	     -0.05271113	     -0.05120422	      0.27327321	     -0.04663137	     -0.09360748	      0.27327321	     -0.03243958	     -0.09360748	      0.22504853	     -0.02635699	     -0.07850801	      0.20897363	     -0.01621837	     -0.05963560	      0.19289874	     -0.20274102	     -0.43551310	      1.43045989	      0.00000000	      0.00000000	      6.36454622	      4.08510738	     -2.47686299	    -33.63382015	    -50.04623269	     34.85917177	    105.33576084	     89.51064622	      8.79249885	    -10.29742933	    -18.43314720	    -55.62803129	     50.48539576	    103.03502859	     89.43941519	     12.41380284	     -4.37873117
      7.31914894	     -4.70826662	     -1.98197726	     92.30465967	      0.08778252	      0.51068698	      0.76802124	      2.00495903	      0.86534026	      0.22911605	     12.95269744	      0.22606722	     33.31182434	      0.92969100	      0.00000000	      1.38257929	      2.09876354	     -3.19372546	     12.55811620	      0.21918048	     32.59437650	     -9.91456225	      0.00000000	     -0.03714076	     -0.05012590	      0.81224227	     -0.06897410	     -0.06666744	      0.86300741	     -0.06101855	     -0.12187611	      0.86300741	     -0.04244817	     -0.12187611	      0.71071199	     -0.03448891	     -0.10221673	      0.65994684	     -0.02122223	     -0.07764502	      0.60918170	     -0.26529271	     -0.56703419	      4.51744783	      0.00000000	      0.00000000	      7.05793046	      3.90842226	     -4.64141773	    -35.32531516	    -49.24943574	     33.38520383	    105.06666673	     89.51427415	      7.53299304	    -12.07508627	    -16.24753919	    -55.80997020	     51.69962831	    103.55173156	     89.44511008	     16.24476023	     -0.72415961
      7.34042553	     -4.68522401	     -1.85331120	     92.17248018	      0.08848536	      0.51078681	      0.76879248	      1.96652145	      0.95012264	      0.25041969	     12.97161466	      0.22639739	     33.43108597	      1.09093859	      0.00000000	      1.28753555	      1.95949961	     -3.95462365	     12.57306832	      0.21944144	     32.75044793	     -8.89999485	      0.00000000	     -0.05789876	     -0.04975306	      0.87415387	     -0.10752379	     -0.06617157	      0.92878849	     -0.09512188	     -0.12096959	      0.92878849	     -0.06617250	     -0.12096959	      0.76488464	     -0.05376479	     -0.10145644	      0.71025002	     -0.03308335	     -0.07706749	      0.65561540	     -0.41356508	     -0.56281658	      4.86178159	      0.00000000	      0.00000000	      7.16819060	      3.82484067	     -5.16828671	    -35.51532411	    -49.04005297	     32.92654862	    105.20393682	     89.51686012	      7.85659207	    -11.54318534	    -16.17355976	    -55.87579885	     51.63390916	    103.78873735	     89.46216203	     16.14744505	     -0.41996822
      7.36170213	     -4.62879826	     -1.97142456	     91.26960530	      0.08999959	      0.51049249	      0.76970552	      2.37703918	      1.18755583	      1.99420275	     13.23073722	      0.23091993	     33.24609617	     -0.14318686	      0.00000000	      1.37361938	      1.90864872	     -4.44369593	     12.45580745	      0.21739485	     32.53870540	     -9.40672017	      0.00000000	     -0.04012463	     -0.04075465	      1.13752673	     -0.07451545	     -0.05420369	      1.20862215	     -0.06592076	     -0.09909087	      1.20862215	     -0.04585844	     -0.09909087	      0.99533589	     -0.03725973	     -0.08310689	      0.92424047	     -0.02292721	     -0.06312896	      0.85314505	     -0.28660623	     -0.46102480	      6.32658242	      0.00000000	      0.00000000	      7.21245644	      3.33409588	     -5.96029156	    -36.40022862	    -48.57732057	     31.95898024	    105.25760865	     89.52242635	      7.52615291	    -11.87221557	    -14.94746056	    -55.98833340	     52.52143804	    103.90501915	     89.47048655	     17.46856891	      0.15578577
      7.38297872	     -4.57362165	     -1.91539015	     91.27816559	      0.09057832	      0.51062420	      0.77028729	      2.35294452	      1.27868296	      1.66541952	     13.16389294	      0.22975327	     33.21678677	      0.12915859	      0.00000000	      1.30600574	      1.73557343	     -5.17999184	     12.38542229	      0.21616640	     32.67616247	     -8.20025045	      0.00000000	     -0.04727786	     -0.03297457	      1.13805180	     -0.08779971	     -0.04385617	      1.20918003	     -0.07767279	     -0.08017436	      1.20918003	     -0.05403386	     -0.08017436	      0.99579532	     -0.04390222	     -0.06724173	      0.92466708	     -0.02701457	     -0.05107760	      0.85353885	     -0.33770101	     -0.37301488	      6.32950267	      0.00000000	      0.00000000	      6.98818694	      3.13781074	     -5.91917945	    -36.42388426	    -48.44492699	     31.64075475	    105.52511226	     89.53138638	      7.76554689	    -10.77863454	    -14.93408908	    -56.09825258	     52.45096155	    104.08980172	     89.46963738	     17.23470496	      0.27571654
      7.40425532	     -4.46571985	     -1.86512931	     90.94186484	      0.09130694	      0.51068322	      0.77056742	      2.41316807	      1.41735918	      1.72855047	     13.28179516	      0.23181106	     33.12470622	      0.21216119	      0.00000000	      1.18781576	      1.55402067	     -5.95882019	     12.27760338	      0.21428460	     32.73264977	     -7.40990504	      0.00000000	     -0.04488483	     -0.01189447	      1.19764325	     -0.08335562	     -0.01581965	      1.27249595	     -0.07374129	     -0.02892022	      1.27249595	     -0.05129887	     -0.02892022	      1.04793784	     -0.04168005	     -0.02425521	      0.97308514	     -0.02564719	     -0.01842454	      0.89823244	     -0.32060784	     -0.13455264	      6.66093245	      0.00000000	      0.00000000	      6.52176937	      2.61233204	     -5.82001651	    -36.73663080	    -48.26650665	     30.98385247	    105.59604115	     89.54702252	      8.42337951	    -10.69016227	    -14.98030218	    -56.05921416	     52.27281212	    104.07228898	     89.47323303	     17.47618864	     -0.01296341
      7.42553191	     -4.51186991	     -2.08621099	     90.92855091	      0.09169976	      0.51011200	      0.77125431	      2.92394438	      1.35978594	      1.33785455	     13.76334169	      0.24021563	     33.26968001	      0.32791901	      0.00000000	      1.63639907	      1.51668691	     -6.35043773	     12.65907241	      0.22094249	     32.98537578	     -6.80888401	      0.00000000	      0.00101244	     -0.01374998	      1.17254624	      0.00188020	     -0.01828747	      1.24583038	      0.00166334	     -0.03343169	      1.24583038	      0.00115712	     -0.03343169	      1.02597796	      0.00094015	     -0.02803895	      0.95269382	      0.00057851	     -0.02129871	      0.87940968	      0.00723176	     -0.15554248	      6.52135040	      0.00000000	      0.00000000	      6.24139029	      2.52225060	     -5.54109094	    -36.55324414	    -48.39548377	     31.10431691	    105.89546606	     89.56557862	      8.38568613	     -9.76230790	    -14.89243000	    -56.25852018	     52.46299656	    104.30691701	     89.46367694	     17.24268707	      0.31911247
      7.44680851	     -4.40286987	     -1.84589825	     90.53366613	      0.09242086	      0.51048724	      0.77109937	      2.49148633	      1.51538509	      1.73543348	     13.36576959	      0.23327669	     32.88929096	      0.24237137	      0.00000000	      1.12285093	      1.42667515	     -6.62282735	     12.18367750	      0.21264529	     32.67432460	     -6.83585428	      0.00000000	     -0.01971086	      0.01099512	      1.23543016	     -0.03660505	      0.01462351	      1.31264454	     -0.03238298	      0.02673354	      1.31264454	     -0.02252755	      0.02673354	      1.08100139	     -0.01830351	      0.02242125	      1.00378700	     -0.01126279	      0.01703144	      0.92657262	     -0.14079273	      0.12437902	      6.87109192	      0.00000000	      0.00000000	      6.28683988	      2.24425141	     -5.25531080	    -36.77230781	    -48.30940822	     30.67388634	    105.72442791	     89.57563433	      8.95480398	    -10.55267003	    -15.07499845	    -56.04357450	     52.09378566	    104.09681523	     89.47398233	     17.83300307	      0.07919501
      7.46808511	     -4.44778529	     -1.69622746	     90.72123520	      0.09272528	      0.51062236	      0.77132185	      2.26250692	      1.47701990	      1.36391486	     13.22321960	      0.23078872	     32.80813374	      0.41417585	      0.00000000	      1.00004436	      1.38682786	     -6.96386249	     12.23636015	      0.21356477	     32.81188925	     -6.05128733	      0.00000000	     -0.02945577	      0.00764911	      1.17954887	     -0.05470231	      0.01017332	      1.25327068	     -0.04839289	      0.01859806	      1.25327068	     -0.03366500	      0.01859806	      1.03210526	     -0.02735263	      0.01559807	      0.95838346	     -0.01683103	      0.01184848	      0.88466165	     -0.21039962	      0.08652831	      6.56029697	      0.00000000	      0.00000000	      6.32183578	      2.41413091	     -5.02620418	    -36.53071179	    -48.42701370	     30.80281663	    105.99248005	     89.58465723	      9.06550294	     -9.17829525	    -14.97518228	    -56.18406706	     52.27452935	    104.28086686	     89.46865155	     17.47018251	      0.77994706
